<mxfile host="www.draw.io" modified="2019-12-30T06:56:28.413Z" agent="Mozilla/5.0 (Windows NT 6.1; WOW64) AppleWebKit/537.36 (KHTML, like Gecko) Chrome/75.0.3770.100 Safari/537.36" etag="1Dj-1Bg3qQiCvk6Wju3Z" version="12.4.7" type="github">
  <diagram id="3_ST8aORF-W1Ic3_STmp" name="第 1 页">
    <mxGraphModel dx="854" dy="478" grid="1" gridSize="10" guides="1" tooltips="1" connect="1" arrows="1" fold="1" page="1" pageScale="1" pageWidth="827" pageHeight="1169" math="0" shadow="0">
      <root>
        <mxCell id="0"/>
        <mxCell id="1" parent="0"/>
        <mxCell id="tVjI4oLR0k96hLmSN2iQ-1" value="" style="rounded=0;whiteSpace=wrap;html=1;fontFamily=Courier New;fontColor=#000000;fillColor=none;" parent="1" vertex="1">
          <mxGeometry x="48" y="950" width="730" height="790" as="geometry"/>
        </mxCell>
        <mxCell id="tVjI4oLR0k96hLmSN2iQ-2" value="平台调度人员" style="rounded=0;whiteSpace=wrap;html=1;fillColor=#4D4D4D;fontColor=#FFFFFF;" parent="1" vertex="1">
          <mxGeometry x="200" y="90" width="150" height="30" as="geometry"/>
        </mxCell>
        <mxCell id="tVjI4oLR0k96hLmSN2iQ-3" value="供应商" style="rounded=0;whiteSpace=wrap;html=1;fillColor=#4D4D4D;fontColor=#FFFFFF;" parent="1" vertex="1">
          <mxGeometry x="350" y="90" width="150" height="30" as="geometry"/>
        </mxCell>
        <mxCell id="tVjI4oLR0k96hLmSN2iQ-4" value="平台审核人员" style="rounded=0;whiteSpace=wrap;html=1;fillColor=#4D4D4D;fontColor=#FFFFFF;" parent="1" vertex="1">
          <mxGeometry x="500" y="90" width="150" height="30" as="geometry"/>
        </mxCell>
        <mxCell id="tVjI4oLR0k96hLmSN2iQ-5" value="体系内线上业务流程" style="rounded=0;whiteSpace=wrap;html=1;fillColor=#CC0000;fontColor=#FFFFFF;fontSize=14;fontStyle=1;fontFamily=Courier New;" parent="1" vertex="1">
          <mxGeometry x="60" y="50" width="730" height="40" as="geometry"/>
        </mxCell>
        <mxCell id="tVjI4oLR0k96hLmSN2iQ-6" value="星沙仓储" style="rounded=1;whiteSpace=wrap;html=1;" parent="1" vertex="1">
          <mxGeometry x="95" y="148" width="70" height="30" as="geometry"/>
        </mxCell>
        <mxCell id="tVjI4oLR0k96hLmSN2iQ-7" value="易家湾仓储" style="rounded=1;whiteSpace=wrap;html=1;" parent="1" vertex="1">
          <mxGeometry x="90" y="228" width="80" height="30" as="geometry"/>
        </mxCell>
        <mxCell id="tVjI4oLR0k96hLmSN2iQ-8" value="各地市仓储" style="rounded=0;whiteSpace=wrap;html=1;fillColor=#4D4D4D;fontColor=#FFFFFF;" parent="1" vertex="1">
          <mxGeometry x="60" y="90" width="140" height="30" as="geometry"/>
        </mxCell>
        <mxCell id="tVjI4oLR0k96hLmSN2iQ-9" value="" style="endArrow=none;dashed=1;html=1;fontFamily=Courier New;fontColor=#FFFFFF;strokeWidth=2;dashPattern=1 4;" parent="1" edge="1">
          <mxGeometry width="50" height="50" relative="1" as="geometry">
            <mxPoint x="129.5" y="353" as="sourcePoint"/>
            <mxPoint x="129.5" y="293" as="targetPoint"/>
          </mxGeometry>
        </mxCell>
        <mxCell id="tVjI4oLR0k96hLmSN2iQ-62" style="edgeStyle=orthogonalEdgeStyle;rounded=1;orthogonalLoop=1;jettySize=auto;html=1;entryX=0.5;entryY=0;entryDx=0;entryDy=0;" parent="1" source="tVjI4oLR0k96hLmSN2iQ-11" target="tVjI4oLR0k96hLmSN2iQ-19" edge="1">
          <mxGeometry relative="1" as="geometry"/>
        </mxCell>
        <mxCell id="tVjI4oLR0k96hLmSN2iQ-115" style="edgeStyle=orthogonalEdgeStyle;rounded=1;orthogonalLoop=1;jettySize=auto;html=1;entryX=1;entryY=0.5;entryDx=0;entryDy=0;startArrow=none;startFill=0;" parent="1" source="tVjI4oLR0k96hLmSN2iQ-11" target="tVjI4oLR0k96hLmSN2iQ-113" edge="1">
          <mxGeometry relative="1" as="geometry"/>
        </mxCell>
        <mxCell id="tVjI4oLR0k96hLmSN2iQ-11" value="预约提货" style="rounded=1;whiteSpace=wrap;html=1;" parent="1" vertex="1">
          <mxGeometry x="390" y="290" width="70" height="30" as="geometry"/>
        </mxCell>
        <mxCell id="tVjI4oLR0k96hLmSN2iQ-15" value="司机收款" style="rounded=1;whiteSpace=wrap;html=1;fillColor=#f8cecc;strokeColor=#b85450;" parent="1" vertex="1">
          <mxGeometry x="180" y="615" width="70" height="30" as="geometry"/>
        </mxCell>
        <mxCell id="tVjI4oLR0k96hLmSN2iQ-16" value="财务" style="rounded=0;whiteSpace=wrap;html=1;fillColor=#4D4D4D;fontColor=#FFFFFF;" parent="1" vertex="1">
          <mxGeometry x="650" y="90" width="140" height="30" as="geometry"/>
        </mxCell>
        <mxCell id="tVjI4oLR0k96hLmSN2iQ-109" style="edgeStyle=orthogonalEdgeStyle;rounded=1;orthogonalLoop=1;jettySize=auto;html=1;startArrow=none;startFill=0;" parent="1" source="tVjI4oLR0k96hLmSN2iQ-19" target="tVjI4oLR0k96hLmSN2iQ-108" edge="1">
          <mxGeometry relative="1" as="geometry"/>
        </mxCell>
        <mxCell id="tVjI4oLR0k96hLmSN2iQ-19" value="提货装车" style="rounded=1;whiteSpace=wrap;html=1;" parent="1" vertex="1">
          <mxGeometry x="390" y="340" width="70" height="30" as="geometry"/>
        </mxCell>
        <mxCell id="tVjI4oLR0k96hLmSN2iQ-23" value="出库指令&lt;br&gt;SCM接口" style="edgeStyle=orthogonalEdgeStyle;rounded=0;orthogonalLoop=1;jettySize=auto;html=1;strokeWidth=1;fontFamily=Courier New;fontColor=#000000;" parent="1" source="tVjI4oLR0k96hLmSN2iQ-6" edge="1">
          <mxGeometry relative="1" as="geometry">
            <Array as="points">
              <mxPoint x="200" y="163"/>
              <mxPoint x="200" y="163"/>
            </Array>
            <mxPoint x="240" y="163" as="targetPoint"/>
          </mxGeometry>
        </mxCell>
        <mxCell id="tVjI4oLR0k96hLmSN2iQ-64" style="edgeStyle=orthogonalEdgeStyle;rounded=1;orthogonalLoop=1;jettySize=auto;html=1;entryX=0;entryY=0.5;entryDx=0;entryDy=0;" parent="1" source="ZWZ5OIvvonjbeggmRMI_-16" target="tVjI4oLR0k96hLmSN2iQ-63" edge="1">
          <mxGeometry relative="1" as="geometry"/>
        </mxCell>
        <mxCell id="tVjI4oLR0k96hLmSN2iQ-70" value="互评&amp;nbsp;" style="edgeStyle=orthogonalEdgeStyle;rounded=1;orthogonalLoop=1;jettySize=auto;html=1;startArrow=classic;startFill=1;exitX=0;exitY=0.5;exitDx=0;exitDy=0;" parent="1" source="ZWZ5OIvvonjbeggmRMI_-16" target="tVjI4oLR0k96hLmSN2iQ-69" edge="1">
          <mxGeometry relative="1" as="geometry"/>
        </mxCell>
        <mxCell id="ZWZ5OIvvonjbeggmRMI_-20" style="edgeStyle=orthogonalEdgeStyle;rounded=0;orthogonalLoop=1;jettySize=auto;html=1;" edge="1" parent="1" source="tVjI4oLR0k96hLmSN2iQ-25" target="ZWZ5OIvvonjbeggmRMI_-16">
          <mxGeometry relative="1" as="geometry"/>
        </mxCell>
        <mxCell id="tVjI4oLR0k96hLmSN2iQ-25" value="卸货" style="rounded=1;whiteSpace=wrap;html=1;" parent="1" vertex="1">
          <mxGeometry x="390" y="450" width="70" height="30" as="geometry"/>
        </mxCell>
        <mxCell id="tVjI4oLR0k96hLmSN2iQ-69" value="信用评价" style="rounded=1;whiteSpace=wrap;html=1;" parent="1" vertex="1">
          <mxGeometry x="240" y="440" width="70" height="30" as="geometry"/>
        </mxCell>
        <mxCell id="tVjI4oLR0k96hLmSN2iQ-28" style="edgeStyle=orthogonalEdgeStyle;rounded=1;orthogonalLoop=1;jettySize=auto;html=1;entryX=0;entryY=0.5;entryDx=0;entryDy=0;strokeWidth=1;fontFamily=Courier New;fontColor=#000000;align=center;exitX=1;exitY=0.5;exitDx=0;exitDy=0;" parent="1" source="ZWZ5OIvvonjbeggmRMI_-32" target="tVjI4oLR0k96hLmSN2iQ-33" edge="1">
          <mxGeometry relative="1" as="geometry"/>
        </mxCell>
        <mxCell id="tVjI4oLR0k96hLmSN2iQ-29" value="对账审核" style="rounded=1;whiteSpace=wrap;html=1;" parent="1" vertex="1">
          <mxGeometry x="545" y="590" width="70" height="30" as="geometry"/>
        </mxCell>
        <mxCell id="tVjI4oLR0k96hLmSN2iQ-51" style="edgeStyle=orthogonalEdgeStyle;rounded=1;orthogonalLoop=1;jettySize=auto;html=1;entryX=0;entryY=0.5;entryDx=0;entryDy=0;" parent="1" source="tVjI4oLR0k96hLmSN2iQ-31" target="tVjI4oLR0k96hLmSN2iQ-50" edge="1">
          <mxGeometry relative="1" as="geometry"/>
        </mxCell>
        <mxCell id="tVjI4oLR0k96hLmSN2iQ-31" value="竞价/指派" style="rounded=1;whiteSpace=wrap;html=1;" parent="1" vertex="1">
          <mxGeometry x="240" y="290" width="70" height="30" as="geometry"/>
        </mxCell>
        <mxCell id="tVjI4oLR0k96hLmSN2iQ-78" style="edgeStyle=orthogonalEdgeStyle;rounded=1;orthogonalLoop=1;jettySize=auto;html=1;entryX=0.5;entryY=0;entryDx=0;entryDy=0;startArrow=none;startFill=0;" parent="1" source="tVjI4oLR0k96hLmSN2iQ-33" target="tVjI4oLR0k96hLmSN2iQ-38" edge="1">
          <mxGeometry relative="1" as="geometry"/>
        </mxCell>
        <mxCell id="tVjI4oLR0k96hLmSN2iQ-33" value="财务审核" style="rounded=1;whiteSpace=wrap;html=1;" parent="1" vertex="1">
          <mxGeometry x="680" y="590" width="70" height="30" as="geometry"/>
        </mxCell>
        <mxCell id="tVjI4oLR0k96hLmSN2iQ-80" value="" style="edgeStyle=orthogonalEdgeStyle;rounded=1;orthogonalLoop=1;jettySize=auto;html=1;startArrow=none;startFill=0;" parent="1" source="tVjI4oLR0k96hLmSN2iQ-34" target="tVjI4oLR0k96hLmSN2iQ-79" edge="1">
          <mxGeometry relative="1" as="geometry"/>
        </mxCell>
        <mxCell id="tVjI4oLR0k96hLmSN2iQ-34" value="供应商&lt;br&gt;平台账户" style="rounded=1;whiteSpace=wrap;html=1;" parent="1" vertex="1">
          <mxGeometry x="390" y="720" width="70" height="30" as="geometry"/>
        </mxCell>
        <mxCell id="tVjI4oLR0k96hLmSN2iQ-96" value="" style="edgeStyle=orthogonalEdgeStyle;rounded=1;orthogonalLoop=1;jettySize=auto;html=1;entryX=0;entryY=0.5;entryDx=0;entryDy=0;startArrow=none;startFill=0;" parent="1" source="tVjI4oLR0k96hLmSN2iQ-79" target="ZWZ5OIvvonjbeggmRMI_-1" edge="1">
          <mxGeometry relative="1" as="geometry"/>
        </mxCell>
        <mxCell id="tVjI4oLR0k96hLmSN2iQ-79" value="提现申请" style="rounded=1;whiteSpace=wrap;html=1;" parent="1" vertex="1">
          <mxGeometry x="390" y="790" width="70" height="30" as="geometry"/>
        </mxCell>
        <mxCell id="tVjI4oLR0k96hLmSN2iQ-93" value="对公账户" style="rounded=1;whiteSpace=wrap;html=1;fillColor=#f8cecc;strokeColor=#b85450;" parent="1" vertex="1">
          <mxGeometry x="390" y="860" width="70" height="30" as="geometry"/>
        </mxCell>
        <mxCell id="tVjI4oLR0k96hLmSN2iQ-35" value="9%税率发票" style="edgeStyle=orthogonalEdgeStyle;rounded=1;orthogonalLoop=1;jettySize=auto;html=1;strokeWidth=1;fontFamily=Courier New;fontColor=#000000;align=center;entryX=0;entryY=0.5;entryDx=0;entryDy=0;" parent="1" source="tVjI4oLR0k96hLmSN2iQ-36" target="ZWZ5OIvvonjbeggmRMI_-32" edge="1">
          <mxGeometry relative="1" as="geometry">
            <mxPoint x="520" y="680" as="targetPoint"/>
          </mxGeometry>
        </mxCell>
        <mxCell id="tVjI4oLR0k96hLmSN2iQ-36" value="线下发票邮寄" style="rounded=1;whiteSpace=wrap;html=1;" parent="1" vertex="1">
          <mxGeometry x="390" y="665" width="70" height="30" as="geometry"/>
        </mxCell>
        <mxCell id="tVjI4oLR0k96hLmSN2iQ-85" style="edgeStyle=orthogonalEdgeStyle;rounded=1;orthogonalLoop=1;jettySize=auto;html=1;entryX=1;entryY=0.5;entryDx=0;entryDy=0;startArrow=none;startFill=0;" parent="1" source="tVjI4oLR0k96hLmSN2iQ-38" target="tVjI4oLR0k96hLmSN2iQ-34" edge="1">
          <mxGeometry relative="1" as="geometry">
            <Array as="points">
              <mxPoint x="715" y="735"/>
            </Array>
          </mxGeometry>
        </mxCell>
        <mxCell id="tVjI4oLR0k96hLmSN2iQ-86" value="虚拟打款" style="text;html=1;align=center;verticalAlign=middle;resizable=0;points=[];labelBackgroundColor=#ffffff;" parent="tVjI4oLR0k96hLmSN2iQ-85" vertex="1" connectable="0">
          <mxGeometry x="0.2803" y="1" relative="1" as="geometry">
            <mxPoint as="offset"/>
          </mxGeometry>
        </mxCell>
        <mxCell id="tVjI4oLR0k96hLmSN2iQ-38" value="财务虚拟打款" style="rounded=1;whiteSpace=wrap;html=1;" parent="1" vertex="1">
          <mxGeometry x="680" y="650" width="70" height="30" as="geometry"/>
        </mxCell>
        <mxCell id="tVjI4oLR0k96hLmSN2iQ-44" style="edgeStyle=orthogonalEdgeStyle;rounded=0;orthogonalLoop=1;jettySize=auto;html=1;" parent="1" source="tVjI4oLR0k96hLmSN2iQ-41" target="tVjI4oLR0k96hLmSN2iQ-31" edge="1">
          <mxGeometry relative="1" as="geometry"/>
        </mxCell>
        <mxCell id="tVjI4oLR0k96hLmSN2iQ-41" value="添加线路&lt;br&gt;&lt;span style=&quot;font-family: &amp;#34;courier new&amp;#34; ; font-size: 11px ; white-space: nowrap ; background-color: rgb(255 , 255 , 255)&quot;&gt;收发货信息&lt;br&gt;&lt;/span&gt;&lt;span style=&quot;font-family: &amp;#34;courier new&amp;#34; ; font-size: 11px ; white-space: nowrap ; background-color: rgb(255 , 255 , 255)&quot;&gt;车辆要求等&lt;/span&gt;&lt;span style=&quot;font-family: &amp;#34;courier new&amp;#34; ; font-size: 11px ; white-space: nowrap ; background-color: rgb(255 , 255 , 255)&quot;&gt;&lt;br&gt;&lt;/span&gt;" style="rounded=1;whiteSpace=wrap;html=1;" parent="1" vertex="1">
          <mxGeometry x="240" y="206" width="70" height="52" as="geometry"/>
        </mxCell>
        <mxCell id="tVjI4oLR0k96hLmSN2iQ-42" value="" style="edgeStyle=orthogonalEdgeStyle;rounded=1;orthogonalLoop=1;jettySize=auto;html=1;strokeWidth=1;fontFamily=Courier New;fontColor=#000000;align=center;" parent="1" source="tVjI4oLR0k96hLmSN2iQ-43" target="tVjI4oLR0k96hLmSN2iQ-41" edge="1">
          <mxGeometry relative="1" as="geometry"/>
        </mxCell>
        <mxCell id="tVjI4oLR0k96hLmSN2iQ-43" value="发布货源" style="rounded=1;whiteSpace=wrap;html=1;" parent="1" vertex="1">
          <mxGeometry x="240" y="148" width="70" height="30" as="geometry"/>
        </mxCell>
        <mxCell id="tVjI4oLR0k96hLmSN2iQ-55" style="edgeStyle=orthogonalEdgeStyle;rounded=1;orthogonalLoop=1;jettySize=auto;html=1;" parent="1" source="tVjI4oLR0k96hLmSN2iQ-48" edge="1">
          <mxGeometry relative="1" as="geometry">
            <mxPoint x="580" y="180" as="targetPoint"/>
          </mxGeometry>
        </mxCell>
        <mxCell id="tVjI4oLR0k96hLmSN2iQ-48" value="添加车辆/司机" style="rounded=1;whiteSpace=wrap;html=1;" parent="1" vertex="1">
          <mxGeometry x="385" y="198" width="80" height="30" as="geometry"/>
        </mxCell>
        <mxCell id="tVjI4oLR0k96hLmSN2iQ-54" style="edgeStyle=orthogonalEdgeStyle;rounded=1;orthogonalLoop=1;jettySize=auto;html=1;entryX=0;entryY=0.5;entryDx=0;entryDy=0;" parent="1" source="tVjI4oLR0k96hLmSN2iQ-49" target="tVjI4oLR0k96hLmSN2iQ-52" edge="1">
          <mxGeometry relative="1" as="geometry"/>
        </mxCell>
        <mxCell id="ZWZ5OIvvonjbeggmRMI_-5" style="edgeStyle=orthogonalEdgeStyle;rounded=0;orthogonalLoop=1;jettySize=auto;html=1;entryX=0.5;entryY=0;entryDx=0;entryDy=0;" edge="1" parent="1" source="tVjI4oLR0k96hLmSN2iQ-49" target="tVjI4oLR0k96hLmSN2iQ-48">
          <mxGeometry relative="1" as="geometry"/>
        </mxCell>
        <mxCell id="tVjI4oLR0k96hLmSN2iQ-49" value="供应商认证" style="rounded=1;whiteSpace=wrap;html=1;" parent="1" vertex="1">
          <mxGeometry x="390" y="147" width="70" height="32" as="geometry"/>
        </mxCell>
        <mxCell id="tVjI4oLR0k96hLmSN2iQ-58" style="edgeStyle=orthogonalEdgeStyle;rounded=1;orthogonalLoop=1;jettySize=auto;html=1;entryX=0.5;entryY=0;entryDx=0;entryDy=0;" parent="1" source="tVjI4oLR0k96hLmSN2iQ-50" target="tVjI4oLR0k96hLmSN2iQ-11" edge="1">
          <mxGeometry relative="1" as="geometry"/>
        </mxCell>
        <mxCell id="tVjI4oLR0k96hLmSN2iQ-50" value="接单" style="rounded=1;whiteSpace=wrap;html=1;" parent="1" vertex="1">
          <mxGeometry x="390" y="239" width="70" height="30" as="geometry"/>
        </mxCell>
        <mxCell id="tVjI4oLR0k96hLmSN2iQ-52" value="资质审核" style="rounded=1;whiteSpace=wrap;html=1;" parent="1" vertex="1">
          <mxGeometry x="540" y="148" width="70" height="30" as="geometry"/>
        </mxCell>
        <mxCell id="ZWZ5OIvvonjbeggmRMI_-26" value="" style="edgeStyle=orthogonalEdgeStyle;rounded=0;orthogonalLoop=1;jettySize=auto;html=1;" edge="1" parent="1" source="tVjI4oLR0k96hLmSN2iQ-63" target="ZWZ5OIvvonjbeggmRMI_-25">
          <mxGeometry relative="1" as="geometry"/>
        </mxCell>
        <mxCell id="tVjI4oLR0k96hLmSN2iQ-63" value="回单审核&amp;nbsp;&lt;br&gt;轨迹审核" style="rounded=1;whiteSpace=wrap;html=1;" parent="1" vertex="1">
          <mxGeometry x="540" y="440" width="70" height="30" as="geometry"/>
        </mxCell>
        <mxCell id="ZWZ5OIvvonjbeggmRMI_-25" value="轨迹打分&lt;br&gt;供应商淘汰" style="rounded=1;whiteSpace=wrap;html=1;" vertex="1" parent="1">
          <mxGeometry x="540" y="330" width="70" height="30" as="geometry"/>
        </mxCell>
        <mxCell id="ZWZ5OIvvonjbeggmRMI_-29" value="通知开具发票" style="edgeStyle=orthogonalEdgeStyle;rounded=1;orthogonalLoop=1;jettySize=auto;html=1;entryX=0.5;entryY=0;entryDx=0;entryDy=0;exitX=0.5;exitY=1;exitDx=0;exitDy=0;" edge="1" parent="1" source="tVjI4oLR0k96hLmSN2iQ-29" target="tVjI4oLR0k96hLmSN2iQ-36">
          <mxGeometry relative="1" as="geometry"/>
        </mxCell>
        <mxCell id="ZWZ5OIvvonjbeggmRMI_-31" style="edgeStyle=orthogonalEdgeStyle;rounded=0;orthogonalLoop=1;jettySize=auto;html=1;entryX=0;entryY=0.5;entryDx=0;entryDy=0;" edge="1" parent="1" source="tVjI4oLR0k96hLmSN2iQ-67" target="tVjI4oLR0k96hLmSN2iQ-29">
          <mxGeometry relative="1" as="geometry"/>
        </mxCell>
        <mxCell id="tVjI4oLR0k96hLmSN2iQ-67" value="结算申请" style="rounded=1;whiteSpace=wrap;html=1;" parent="1" vertex="1">
          <mxGeometry x="390" y="590" width="70" height="30" as="geometry"/>
        </mxCell>
        <mxCell id="tVjI4oLR0k96hLmSN2iQ-95" style="edgeStyle=orthogonalEdgeStyle;rounded=1;orthogonalLoop=1;jettySize=auto;html=1;startArrow=none;startFill=0;" parent="1" source="tVjI4oLR0k96hLmSN2iQ-87" target="tVjI4oLR0k96hLmSN2iQ-93" edge="1">
          <mxGeometry relative="1" as="geometry"/>
        </mxCell>
        <mxCell id="tVjI4oLR0k96hLmSN2iQ-87" value="对公账户" style="rounded=1;whiteSpace=wrap;html=1;" parent="1" vertex="1">
          <mxGeometry x="680" y="860" width="70" height="30" as="geometry"/>
        </mxCell>
        <mxCell id="tVjI4oLR0k96hLmSN2iQ-100" value="运单数据上报" style="rounded=1;whiteSpace=wrap;html=1;" parent="1" vertex="1">
          <mxGeometry x="540" y="500" width="75" height="30" as="geometry"/>
        </mxCell>
        <mxCell id="tVjI4oLR0k96hLmSN2iQ-105" value="统计报表" style="rounded=1;whiteSpace=wrap;html=1;" parent="1" vertex="1">
          <mxGeometry x="675" y="530" width="75" height="30" as="geometry"/>
        </mxCell>
        <mxCell id="tVjI4oLR0k96hLmSN2iQ-110" style="edgeStyle=orthogonalEdgeStyle;rounded=1;orthogonalLoop=1;jettySize=auto;html=1;startArrow=none;startFill=0;" parent="1" source="tVjI4oLR0k96hLmSN2iQ-108" target="tVjI4oLR0k96hLmSN2iQ-25" edge="1">
          <mxGeometry relative="1" as="geometry"/>
        </mxCell>
        <mxCell id="tVjI4oLR0k96hLmSN2iQ-108" value="运输轨迹" style="rounded=1;whiteSpace=wrap;html=1;" parent="1" vertex="1">
          <mxGeometry x="390" y="390" width="70" height="30" as="geometry"/>
        </mxCell>
        <mxCell id="tVjI4oLR0k96hLmSN2iQ-112" style="edgeStyle=orthogonalEdgeStyle;rounded=1;orthogonalLoop=1;jettySize=auto;html=1;startArrow=none;startFill=0;" parent="1" source="tVjI4oLR0k96hLmSN2iQ-111" target="tVjI4oLR0k96hLmSN2iQ-108" edge="1">
          <mxGeometry relative="1" as="geometry"/>
        </mxCell>
        <mxCell id="tVjI4oLR0k96hLmSN2iQ-111" value="轨迹监控" style="rounded=1;whiteSpace=wrap;html=1;" parent="1" vertex="1">
          <mxGeometry x="240" y="390" width="70" height="30" as="geometry"/>
        </mxCell>
        <mxCell id="tVjI4oLR0k96hLmSN2iQ-113" value="预约确认" style="rounded=1;whiteSpace=wrap;html=1;" parent="1" vertex="1">
          <mxGeometry x="240" y="340" width="70" height="30" as="geometry"/>
        </mxCell>
        <mxCell id="ZWZ5OIvvonjbeggmRMI_-4" style="edgeStyle=orthogonalEdgeStyle;rounded=0;orthogonalLoop=1;jettySize=auto;html=1;" edge="1" parent="1" source="ZWZ5OIvvonjbeggmRMI_-1" target="tVjI4oLR0k96hLmSN2iQ-87">
          <mxGeometry relative="1" as="geometry"/>
        </mxCell>
        <mxCell id="ZWZ5OIvvonjbeggmRMI_-1" value="提现审核" style="rounded=1;whiteSpace=wrap;html=1;" vertex="1" parent="1">
          <mxGeometry x="680" y="790" width="70" height="30" as="geometry"/>
        </mxCell>
        <mxCell id="ZWZ5OIvvonjbeggmRMI_-11" value="&lt;span style=&quot;white-space: normal&quot;&gt;轨迹每2h上传坐标&lt;/span&gt;" style="whiteSpace=wrap;html=1;shape=mxgraph.basic.oval_callout;fillColor=none;" vertex="1" parent="1">
          <mxGeometry x="450" y="350" width="110" height="60" as="geometry"/>
        </mxCell>
        <mxCell id="ZWZ5OIvvonjbeggmRMI_-12" value="" style="rounded=0;whiteSpace=wrap;html=1;fillColor=none;dashed=1;" vertex="1" parent="1">
          <mxGeometry x="155" y="595" width="120" height="70" as="geometry"/>
        </mxCell>
        <mxCell id="ZWZ5OIvvonjbeggmRMI_-13" value="线下无需体现" style="text;html=1;strokeColor=none;fillColor=none;align=center;verticalAlign=middle;whiteSpace=wrap;rounded=0;dashed=1;" vertex="1" parent="1">
          <mxGeometry x="165" y="570" width="90" height="20" as="geometry"/>
        </mxCell>
        <mxCell id="ZWZ5OIvvonjbeggmRMI_-21" value="按账期三个月结算" style="edgeStyle=orthogonalEdgeStyle;rounded=0;orthogonalLoop=1;jettySize=auto;html=1;entryX=0.5;entryY=0;entryDx=0;entryDy=0;" edge="1" parent="1" source="ZWZ5OIvvonjbeggmRMI_-16" target="tVjI4oLR0k96hLmSN2iQ-67">
          <mxGeometry relative="1" as="geometry"/>
        </mxCell>
        <mxCell id="ZWZ5OIvvonjbeggmRMI_-16" value="客户签收&lt;br&gt;回单上传" style="rounded=1;whiteSpace=wrap;html=1;" vertex="1" parent="1">
          <mxGeometry x="390" y="510" width="70" height="30" as="geometry"/>
        </mxCell>
        <mxCell id="ZWZ5OIvvonjbeggmRMI_-18" style="edgeStyle=orthogonalEdgeStyle;rounded=0;orthogonalLoop=1;jettySize=auto;html=1;exitX=0.5;exitY=1;exitDx=0;exitDy=0;" edge="1" parent="1" source="ZWZ5OIvvonjbeggmRMI_-16" target="ZWZ5OIvvonjbeggmRMI_-16">
          <mxGeometry relative="1" as="geometry"/>
        </mxCell>
        <mxCell id="ZWZ5OIvvonjbeggmRMI_-22" value="运输责任由供应商承担" style="text;html=1;strokeColor=none;fillColor=none;align=center;verticalAlign=middle;whiteSpace=wrap;rounded=0;dashed=1;" vertex="1" parent="1">
          <mxGeometry x="470" y="228" width="140" height="20" as="geometry"/>
        </mxCell>
        <mxCell id="ZWZ5OIvvonjbeggmRMI_-27" value="账期三月结" style="rounded=1;whiteSpace=wrap;html=1;" vertex="1" parent="1">
          <mxGeometry x="85" y="390" width="80" height="30" as="geometry"/>
        </mxCell>
        <mxCell id="ZWZ5OIvvonjbeggmRMI_-28" value="财辅接口" style="text;html=1;strokeColor=none;fillColor=none;align=center;verticalAlign=middle;whiteSpace=wrap;rounded=0;dashed=1;" vertex="1" parent="1">
          <mxGeometry x="580" y="640" width="90" height="20" as="geometry"/>
        </mxCell>
        <mxCell id="ZWZ5OIvvonjbeggmRMI_-32" value="审核发票" style="rounded=1;whiteSpace=wrap;html=1;" vertex="1" parent="1">
          <mxGeometry x="545" y="665" width="70" height="30" as="geometry"/>
        </mxCell>
        <mxCell id="ZWZ5OIvvonjbeggmRMI_-33" value="评价模版" style="text;html=1;strokeColor=none;fillColor=none;align=center;verticalAlign=middle;whiteSpace=wrap;rounded=0;dashed=1;" vertex="1" parent="1">
          <mxGeometry x="175" y="445" width="65" height="20" as="geometry"/>
        </mxCell>
      </root>
    </mxGraphModel>
  </diagram>
</mxfile>
